<svg xmlns="http://www.w3.org/2000/svg" width="760" height="460" viewBox="0 0 760 460">
<rect width="100%" height="100%" fill="#ffffff"/>
<text x="380.0" y="28" text-anchor="middle" font-family="Arial" font-size="18" font-weight="700">v0.6 ECI ascent: altitude and inertial speed</text>
<line x1="78" y1="54" x2="78" y2="390" stroke="#222" stroke-width="1.2"/>
<line x1="78" y1="390" x2="736" y2="390" stroke="#222" stroke-width="1.2"/>
<line x1="78.0" y1="390" x2="78.0" y2="395" stroke="#222"/>
<text x="78.0" y="412" text-anchor="middle" font-family="Arial" font-size="11">0</text>
<line x1="73" y1="390.0" x2="78" y2="390.0" stroke="#222"/>
<text x="68" y="394.0" text-anchor="end" font-family="Arial" font-size="11">0.0522</text>
<line x1="78" y1="390.0" x2="736" y2="390.0" stroke="#e6e6e6"/>
<line x1="209.6" y1="390" x2="209.6" y2="395" stroke="#222"/>
<text x="209.6" y="412" text-anchor="middle" font-family="Arial" font-size="11">131</text>
<line x1="73" y1="322.8" x2="78" y2="322.8" stroke="#222"/>
<text x="68" y="326.8" text-anchor="end" font-family="Arial" font-size="11">64.7</text>
<line x1="78" y1="322.8" x2="736" y2="322.8" stroke="#e6e6e6"/>
<line x1="341.2" y1="390" x2="341.2" y2="395" stroke="#222"/>
<text x="341.2" y="412" text-anchor="middle" font-family="Arial" font-size="11">263</text>
<line x1="73" y1="255.6" x2="78" y2="255.6" stroke="#222"/>
<text x="68" y="259.6" text-anchor="end" font-family="Arial" font-size="11">129</text>
<line x1="78" y1="255.6" x2="736" y2="255.6" stroke="#e6e6e6"/>
<line x1="472.8" y1="390" x2="472.8" y2="395" stroke="#222"/>
<text x="472.8" y="412" text-anchor="middle" font-family="Arial" font-size="11">394</text>
<line x1="73" y1="188.4" x2="78" y2="188.4" stroke="#222"/>
<text x="68" y="192.4" text-anchor="end" font-family="Arial" font-size="11">194</text>
<line x1="78" y1="188.4" x2="736" y2="188.4" stroke="#e6e6e6"/>
<line x1="604.4" y1="390" x2="604.4" y2="395" stroke="#222"/>
<text x="604.4" y="412" text-anchor="middle" font-family="Arial" font-size="11">526</text>
<line x1="73" y1="121.2" x2="78" y2="121.2" stroke="#222"/>
<text x="68" y="125.2" text-anchor="end" font-family="Arial" font-size="11">259</text>
<line x1="78" y1="121.2" x2="736" y2="121.2" stroke="#e6e6e6"/>
<line x1="736.0" y1="390" x2="736.0" y2="395" stroke="#222"/>
<text x="736.0" y="412" text-anchor="middle" font-family="Arial" font-size="11">657</text>
<line x1="73" y1="54.0" x2="78" y2="54.0" stroke="#222"/>
<text x="68" y="58.0" text-anchor="end" font-family="Arial" font-size="11">323</text>
<line x1="78" y1="54.0" x2="736" y2="54.0" stroke="#e6e6e6"/>
<polyline fill="none" stroke="#1f77b4" stroke-width="2.3" points="78.0,390.0 83.0,390.0 88.0,389.8 93.0,389.7 98.0,389.4 103.0,389.0 108.0,388.6 113.1,388.1 118.1,387.4 123.1,386.7 128.1,385.8 133.1,384.7 138.1,383.6 143.1,382.3 148.1,380.8 153.1,379.2 158.1,377.3 163.1,375.3 168.1,373.1 173.2,370.7 178.2,368.0 183.2,365.1 188.2,361.9 193.2,358.4 198.2,354.7 203.2,350.6 208.2,346.2 213.2,341.4 218.2,336.3 223.2,330.7 228.2,324.7 233.3,318.3 238.3,311.4 239.3,310.5 243.9,303.3 249.0,296.3 254.0,289.2 259.0,282.3 264.0,275.4 269.0,268.6 274.0,261.8 279.0,255.1 284.0,248.5 289.0,241.9 294.0,235.4 299.0,229.0 304.0,222.6 309.1,216.4 314.1,210.2 319.1,204.1 324.1,198.0 329.1,192.1 334.1,186.2 339.1,180.5 344.1,174.8 349.1,169.3 354.1,163.8 359.1,158.5 364.1,153.3 369.2,148.2 374.2,143.3 379.2,138.5 384.2,133.9 389.2,129.4 394.2,125.1 399.2,120.9 404.2,116.9 409.2,113.0 414.2,109.3 419.2,105.7 424.2,102.2 429.2,98.9 434.3,95.7 439.3,92.6 444.3,89.6 449.3,86.8 454.3,84.1 459.3,81.4 464.3,78.9 466.3,78.3 469.6,76.4 474.6,74.2 479.6,72.0 484.6,70.0 489.6,68.2 494.6,66.5 499.6,64.8 504.6,63.4 509.6,62.0 514.6,60.7 519.6,59.6 524.7,58.6 529.7,57.7 534.7,56.9 539.7,56.2 544.7,55.6 549.7,55.1 554.7,54.7 559.7,54.4 564.7,54.2 569.7,54.0 574.7,54.0 579.7,54.0 584.8,54.2 589.8,54.3 594.8,54.6 599.8,54.9 604.8,55.3 609.8,55.8 614.8,56.3 619.8,56.8 624.8,57.4 629.8,58.0 634.8,58.7 639.8,59.4 644.9,60.2 649.9,60.9 654.9,61.7 659.9,62.5 664.9,63.2 669.9,64.0 674.9,64.8 679.9,65.6 684.9,66.3 689.9,67.0 694.9,67.7 699.9,68.4 704.9,68.9 710.0,69.5 715.0,69.9 720.0,70.3 725.0,70.6 730.0,70.8 735.0,70.9 736.0,70.9"/>
<polyline fill="none" stroke="#d62728" stroke-width="2.3" points="78.0,389.6 83.0,389.6 88.0,389.6 93.0,389.6 98.0,389.6 103.0,389.6 108.0,389.6 113.1,389.6 118.1,389.6 123.1,389.6 128.1,389.5 133.1,389.5 138.1,389.5 143.1,389.5 148.1,389.5 153.1,389.4 158.1,389.4 163.1,389.4 168.1,389.3 173.2,389.3 178.2,389.2 183.2,389.2 188.2,389.1 193.2,389.0 198.2,389.0 203.2,388.9 208.2,388.8 213.2,388.7 218.2,388.6 223.2,388.5 228.2,388.4 233.3,388.3 238.3,388.2 239.3,388.1 243.9,388.1 249.0,388.1 254.0,388.1 259.0,388.1 264.0,388.1 269.0,388.1 274.0,388.1 279.0,388.1 284.0,388.0 289.0,388.0 294.0,388.0 299.0,388.0 304.0,388.0 309.1,387.9 314.1,387.9 319.1,387.9 324.1,387.9 329.1,387.8 334.1,387.8 339.1,387.8 344.1,387.7 349.1,387.7 354.1,387.7 359.1,387.6 364.1,387.6 369.2,387.6 374.2,387.5 379.2,387.5 384.2,387.4 389.2,387.4 394.2,387.3 399.2,387.3 404.2,387.2 409.2,387.1 414.2,387.1 419.2,387.0 424.2,386.9 429.2,386.9 434.3,386.8 439.3,386.7 444.3,386.6 449.3,386.6 454.3,386.5 459.3,386.4 464.3,386.3 466.3,386.3 469.6,386.3 474.6,386.2 479.6,386.2 484.6,386.1 489.6,386.1 494.6,386.0 499.6,386.0 504.6,385.9 509.6,385.8 514.6,385.8 519.6,385.7 524.7,385.7 529.7,385.6 534.7,385.6 539.7,385.5 544.7,385.4 549.7,385.4 554.7,385.3 559.7,385.2 564.7,385.2 569.7,385.1 574.7,385.0 579.7,385.0 584.8,384.9 589.8,384.8 594.8,384.8 599.8,384.7 604.8,384.6 609.8,384.5 614.8,384.5 619.8,384.4 624.8,384.3 629.8,384.2 634.8,384.1 639.8,384.0 644.9,384.0 649.9,383.9 654.9,383.8 659.9,383.7 664.9,383.6 669.9,383.5 674.9,383.4 679.9,383.3 684.9,383.2 689.9,383.1 694.9,383.0 699.9,382.9 704.9,382.8 710.0,382.7 715.0,382.5 720.0,382.4 725.0,382.3 730.0,382.2 735.0,382.0 736.0,382.0"/>
<line x1="86" y1="72" x2="110" y2="72" stroke="#1f77b4" stroke-width="2.6"/>
<text x="118" y="76" font-family="Arial" font-size="12">Altitude km</text>
<line x1="86" y1="92" x2="110" y2="92" stroke="#d62728" stroke-width="2.6"/>
<text x="118" y="96" font-family="Arial" font-size="12">Inertial speed km/s</text>
<text x="380.0" y="442" text-anchor="middle" font-family="Arial" font-size="13">Time (s)</text>
<text transform="translate(18 230.0) rotate(-90)" text-anchor="middle" font-family="Arial" font-size="13">Altitude (km) / speed (km/s)</text>
</svg>