<svg xmlns="http://www.w3.org/2000/svg" width="1500" height="900" viewBox="0 0 1500 900">
  <defs>
    <marker id="arrow-muted" markerWidth="12" markerHeight="12" refX="10" refY="6" orient="auto" markerUnits="strokeWidth">
      <path d="M 0 0 L 12 6 L 0 12 z" fill="#738391"/>
    </marker>
    <marker id="arrow-purple" markerWidth="12" markerHeight="12" refX="10" refY="6" orient="auto" markerUnits="strokeWidth">
      <path d="M 0 0 L 12 6 L 0 12 z" fill="#6f4aa8"/>
    </marker>
    <filter id="soft-shadow" x="-10%" y="-10%" width="120%" height="130%">
      <feDropShadow dx="0" dy="8" stdDeviation="8" flood-color="#17212b" flood-opacity="0.10"/>
    </filter>
    <style>
      text { font-family: Arial, Helvetica, sans-serif; fill: #17212b; }
      .title { font-size: 28px; font-weight: 700; }
      .subtitle { font-size: 15px; fill: #5e6b76; }
      .section { font-size: 18px; font-weight: 700; }
      .label { font-size: 15px; font-weight: 700; }
      .body { font-size: 15px; fill: #31404c; }
      .small { font-size: 13px; fill: #5e6b76; }
      .tiny { font-size: 11px; fill: #5e6b76; }
      .tiny-white { font-size: 10px; fill: #ffffff; font-weight: 700; }
      .metric { font-size: 30px; font-weight: 700; }
      .mono { font-size: 14px; font-family: Consolas, Menlo, monospace; fill: #31404c; }
      .step { font-size: 18px; font-weight: 700; fill: #ffffff; }
      .table-head { font-size: 14px; font-weight: 700; fill: #44525e; }
      .panel { fill: #ffffff; stroke: #d5dee7; stroke-width: 1.3; filter: url(#soft-shadow); }
    </style>
  </defs>
  <rect width="100%" height="100%" fill="#f3f6fa"/>
<text x="750.0" y="54.0" class="title" text-anchor="middle">Enhanced Fig. 3/4: LEO Rendezvous and TLI Geometry</text>
<text x="750.0" y="82.0" class="subtitle" text-anchor="middle">A single orbit-mechanics figure links phasing, docking, and the Hohmann-style TLI estimate.</text>
<rect x="58" y="116" width="1008" height="704" rx="18" class="panel"/>
<rect x="1100" y="116" width="342" height="704" rx="18" class="panel"/>
<circle cx="462" cy="470" r="92" fill="#e8f2ff" stroke="#2468b4" stroke-width="2"/>
<path d="M 392 448 C 420 430, 457 445, 493 421 C 521 402, 550 426, 535 459 C 515 500, 462 502, 433 492 C 401 482, 370 472, 392 448" fill="#b7d7ef" opacity="0.65"/>
<text x="462.0" y="478.0" class="label" text-anchor="middle">Earth</text>
<circle cx="928" cy="268" r="50" fill="#f3f0e8" stroke="#9a8f7a" stroke-width="1.8"/>
<text x="928.0" y="336.0" class="label" text-anchor="middle">Moon</text>
<ellipse cx="462" cy="470" rx="202" ry="88" fill="none" stroke="#2468b4" stroke-width="2.4"/>
<ellipse cx="462" cy="470" rx="171" ry="74" fill="none" stroke="#22a3a8" stroke-width="2.0" stroke-dasharray="7 7"/>
<path d="M 658 448 C 736 248, 850 188, 902 244" fill="none" stroke="#6f4aa8" stroke-width="3.4" marker-end="url(#arrow-purple)"/>
<path d="M 646 494 C 750 620, 900 548, 978 326" fill="none" stroke="#d9e1e8" stroke-width="1.5" stroke-dasharray="8 8"/>
<rect x="640" y="386" width="118" height="54" rx="10" fill="#ffffff" stroke="#2468b4" stroke-width="2.2"/>
<rect x="654" y="400" width="90" height="26" rx="5" fill="#2468b4" opacity="0.16"/>
<line x1="612" y1="413" x2="640" y2="413" stroke="#2468b4" stroke-width="3"/>
<line x1="758" y1="413" x2="786" y2="413" stroke="#2468b4" stroke-width="3"/>
<text x="699.0" y="408.0" class="label" text-anchor="middle">Target</text>
<text x="699.0" y="428.0" class="tiny" text-anchor="middle">300 km</text>
<rect x="296" y="556" width="118" height="54" rx="10" fill="#ffffff" stroke="#22a3a8" stroke-width="2.2"/>
<rect x="310" y="570" width="90" height="26" rx="5" fill="#22a3a8" opacity="0.16"/>
<line x1="268" y1="583" x2="296" y2="583" stroke="#22a3a8" stroke-width="3"/>
<line x1="414" y1="583" x2="442" y2="583" stroke="#22a3a8" stroke-width="3"/>
<text x="355.0" y="578.0" class="label" text-anchor="middle">Phasing</text>
<text x="355.0" y="598.0" class="tiny" text-anchor="middle">260 km</text>
<circle cx="610" cy="430" r="15" fill="#fff7e8" stroke="#d9822b" stroke-width="3"/>
<text x="610.0" y="404.0" class="small" text-anchor="middle">rendezvous</text>
<path d="M 342.0 540.0 Q 456.0 586.0 600.0 438.0" fill="none" stroke="#22a3a8" stroke-width="2.4" marker-end="url(#arrow-muted)"/>
<path d="M 650.0 408.0 Q 646.0 380.0 660.0 350.0" fill="none" stroke="#6f4aa8" stroke-width="2.4" marker-end="url(#arrow-purple)"/>
<rect x="112" y="662" width="392" height="116" rx="14" fill="#ffffff" stroke="#d9e1e8"/>
<text x="132.0" y="688.0" class="label" text-anchor="start">TLI sensitivity</text>
<line x1="170" y1="700.0" x2="486" y2="700.0" stroke="#edf1f4"/>
<text x="170.0" y="750.0" class="tiny" text-anchor="middle">200</text>
<text x="162.0" y="704.0" class="tiny" text-anchor="end">3.14</text>
<line x1="170" y1="707.5" x2="486" y2="707.5" stroke="#edf1f4"/>
<text x="249.0" y="750.0" class="tiny" text-anchor="middle">400</text>
<text x="162.0" y="711.5" class="tiny" text-anchor="end">3.09</text>
<line x1="170" y1="715.0" x2="486" y2="715.0" stroke="#edf1f4"/>
<text x="328.0" y="750.0" class="tiny" text-anchor="middle">600</text>
<text x="162.0" y="719.0" class="tiny" text-anchor="end">3.04</text>
<line x1="170" y1="722.5" x2="486" y2="722.5" stroke="#edf1f4"/>
<text x="407.0" y="750.0" class="tiny" text-anchor="middle">800</text>
<text x="162.0" y="726.5" class="tiny" text-anchor="end">2.99</text>
<line x1="170" y1="730.0" x2="486" y2="730.0" stroke="#edf1f4"/>
<text x="486.0" y="750.0" class="tiny" text-anchor="middle">1000</text>
<text x="162.0" y="734.0" class="tiny" text-anchor="end">2.94</text>
<line x1="170" y1="700" x2="170" y2="730" stroke="#798996"/>
<line x1="170" y1="730" x2="486" y2="730" stroke="#798996"/>
<polyline fill="none" stroke="#6f4aa8" stroke-width="2.6" points="170.0,701.5 209.5,705.1 249.0,708.7 288.5,712.2 407.0,722.2 486.0,728.5"/>
<circle cx="486.0" cy="728.5" r="4.5" fill="#6f4aa8"/>
<text x="308.0" y="766.0" class="tiny" text-anchor="middle">Parking altitude (km)</text>
<text transform="translate(130.0 720.0) rotate(-90)" class="tiny" text-anchor="middle">km/s</text>
<rect x="574" y="662" width="392" height="116" rx="14" fill="#ffffff" stroke="#d9e1e8"/>
<text x="594.0" y="688.0" class="label" text-anchor="start">Phasing sensitivity</text>
<line x1="632" y1="700.0" x2="948" y2="700.0" stroke="#edf1f4"/>
<text x="632.0" y="750.0" class="tiny" text-anchor="middle">260</text>
<text x="624.0" y="704.0" class="tiny" text-anchor="end">74.6</text>
<line x1="632" y1="707.5" x2="948" y2="707.5" stroke="#edf1f4"/>
<text x="711.0" y="750.0" class="tiny" text-anchor="middle">280</text>
<text x="624.0" y="711.5" class="tiny" text-anchor="end">60.5</text>
<line x1="632" y1="715.0" x2="948" y2="715.0" stroke="#edf1f4"/>
<text x="790.0" y="750.0" class="tiny" text-anchor="middle">300</text>
<text x="624.0" y="719.0" class="tiny" text-anchor="end">46.5</text>
<line x1="632" y1="722.5" x2="948" y2="722.5" stroke="#edf1f4"/>
<text x="869.0" y="750.0" class="tiny" text-anchor="middle">320</text>
<text x="624.0" y="726.5" class="tiny" text-anchor="end">32.5</text>
<line x1="632" y1="730.0" x2="948" y2="730.0" stroke="#edf1f4"/>
<text x="948.0" y="750.0" class="tiny" text-anchor="middle">340</text>
<text x="624.0" y="734.0" class="tiny" text-anchor="end">18.5</text>
<line x1="632" y1="700" x2="632" y2="730" stroke="#798996"/>
<line x1="632" y1="730" x2="948" y2="730" stroke="#798996"/>
<polyline fill="none" stroke="#d9822b" stroke-width="2.6" points="632.0,730.0 711.0,720.0 750.5,700.1 829.5,700.0 869.0,719.9 948.0,729.9"/>
<circle cx="948.0" cy="729.9" r="4.5" fill="#d9822b"/>
<text x="770.0" y="766.0" class="tiny" text-anchor="middle">Phasing altitude (km)</text>
<text transform="translate(592.0 720.0) rotate(-90)" class="tiny" text-anchor="middle">hours</text>
<text x="1132.0" y="160.0" class="section" text-anchor="start">Numerical anchors</text>
<rect x="1130" y="175" width="276" height="48" rx="12" fill="#ffffff" stroke="#d9e1e8"/>
<text x="1150.0" y="201.0" class="small" text-anchor="start">Target LEO</text>
<text x="1400.0" y="201.0" class="label" text-anchor="end">300 km</text>
<rect x="1130" y="241" width="276" height="48" rx="12" fill="#ffffff" stroke="#d9e1e8"/>
<text x="1150.0" y="267.0" class="small" text-anchor="start">Phasing LEO</text>
<text x="1400.0" y="267.0" class="label" text-anchor="end">260 km example</text>
<rect x="1130" y="307" width="276" height="48" rx="12" fill="#ffffff" stroke="#d9e1e8"/>
<text x="1150.0" y="333.0" class="small" text-anchor="start">Phase angle</text>
<text x="1400.0" y="333.0" class="label" text-anchor="end">40 deg</text>
<rect x="1130" y="373" width="276" height="48" rx="12" fill="#ffffff" stroke="#d9e1e8"/>
<text x="1150.0" y="399.0" class="small" text-anchor="start">Wait time</text>
<text x="1400.0" y="399.0" class="label" text-anchor="end">18.5 h</text>
<rect x="1130" y="439" width="276" height="48" rx="12" fill="#ffffff" stroke="#d9e1e8"/>
<text x="1150.0" y="465.0" class="small" text-anchor="start">Rendezvous Delta-v</text>
<text x="1400.0" y="465.0" class="label" text-anchor="end">43.3 m/s</text>
<rect x="1130" y="505" width="276" height="48" rx="12" fill="#ffffff" stroke="#d9e1e8"/>
<text x="1150.0" y="531.0" class="small" text-anchor="start">TLI Delta-v</text>
<text x="1400.0" y="531.0" class="label" text-anchor="end">3.108 km/s</text>
<rect x="1130" y="571" width="276" height="48" rx="12" fill="#ffffff" stroke="#d9e1e8"/>
<text x="1150.0" y="597.0" class="small" text-anchor="start">Transfer time</text>
<text x="1400.0" y="597.0" class="label" text-anchor="end">4.98 d</text>
<rect x="1130" y="710" width="276" height="70" rx="12" fill="#f6f8fb" stroke="#d9e1e8"/>
<text x="1150.0" y="735.0" class="small" text-anchor="start">The figure separates small</text>
<text x="1150.0" y="753.0" class="small" text-anchor="start">rendezvous impulses from the</text>
<text x="1150.0" y="771.0" class="small" text-anchor="start">much larger TLI burn, which is</text>
<text x="1150.0" y="789.0" class="small" text-anchor="start">the main mass-budget driver.</text>
</svg>