<svg xmlns="http://www.w3.org/2000/svg" width="1500" height="940" viewBox="0 0 1500 940">
  <defs>
    <marker id="arrow-muted" markerWidth="12" markerHeight="12" refX="10" refY="6" orient="auto" markerUnits="strokeWidth">
      <path d="M 0 0 L 12 6 L 0 12 z" fill="#738391"/>
    </marker>
    <marker id="arrow-purple" markerWidth="12" markerHeight="12" refX="10" refY="6" orient="auto" markerUnits="strokeWidth">
      <path d="M 0 0 L 12 6 L 0 12 z" fill="#6f4aa8"/>
    </marker>
    <filter id="soft-shadow" x="-10%" y="-10%" width="120%" height="130%">
      <feDropShadow dx="0" dy="8" stdDeviation="8" flood-color="#17212b" flood-opacity="0.10"/>
    </filter>
    <style>
      text { font-family: Arial, Helvetica, sans-serif; fill: #17212b; }
      .title { font-size: 28px; font-weight: 700; }
      .subtitle { font-size: 15px; fill: #5e6b76; }
      .section { font-size: 18px; font-weight: 700; }
      .label { font-size: 15px; font-weight: 700; }
      .body { font-size: 15px; fill: #31404c; }
      .small { font-size: 13px; fill: #5e6b76; }
      .tiny { font-size: 11px; fill: #5e6b76; }
      .tiny-white { font-size: 10px; fill: #ffffff; font-weight: 700; }
      .metric { font-size: 30px; font-weight: 700; }
      .mono { font-size: 14px; font-family: Consolas, Menlo, monospace; fill: #31404c; }
      .step { font-size: 18px; font-weight: 700; fill: #ffffff; }
      .table-head { font-size: 14px; font-weight: 700; fill: #44525e; }
      .panel { fill: #ffffff; stroke: #d5dee7; stroke-width: 1.3; filter: url(#soft-shadow); }
    </style>
  </defs>
  <rect width="100%" height="100%" fill="#f3f6fa"/>
<text x="750.0" y="54.0" class="title" text-anchor="middle">Enhanced Fig. 10: Reliability Chain and Sensitivity</text>
<text x="750.0" y="82.0" class="subtitle" text-anchor="middle">The baseline is not only two launches; LEO rendezvous and TLI are explicit serial reliability factors.</text>
<rect x="58" y="116" width="1384" height="336" rx="18" class="panel"/>
<text x="92.0" y="154.0" class="section" text-anchor="start">Serial mission chain</text>
<rect x="112" y="214" width="188" height="108" rx="14" fill="#ffffff" stroke="#2468b4" stroke-width="2.4"/>
<text x="206.0" y="248.0" class="label" text-anchor="middle">Launch A</text>
<text x="206.0" y="287.0" class="metric" text-anchor="middle">0.950</text>
<line x1="310" y1="268" x2="358" y2="268" stroke="#9fb0bf" stroke-width="2.4" marker-end="url(#arrow-muted)"/>
<rect x="372" y="214" width="188" height="108" rx="14" fill="#ffffff" stroke="#22a3a8" stroke-width="2.4"/>
<text x="466.0" y="248.0" class="label" text-anchor="middle">Launch B</text>
<text x="466.0" y="287.0" class="metric" text-anchor="middle">0.950</text>
<line x1="570" y1="268" x2="618" y2="268" stroke="#9fb0bf" stroke-width="2.4" marker-end="url(#arrow-muted)"/>
<rect x="632" y="214" width="188" height="108" rx="14" fill="#ffffff" stroke="#d9822b" stroke-width="2.4"/>
<text x="726.0" y="248.0" class="label" text-anchor="middle">LEO rendezvous</text>
<text x="726.0" y="287.0" class="metric" text-anchor="middle">0.980</text>
<line x1="830" y1="268" x2="878" y2="268" stroke="#9fb0bf" stroke-width="2.4" marker-end="url(#arrow-muted)"/>
<rect x="892" y="214" width="188" height="108" rx="14" fill="#ffffff" stroke="#6f4aa8" stroke-width="2.4"/>
<text x="986.0" y="248.0" class="label" text-anchor="middle">TLI burn</text>
<text x="986.0" y="287.0" class="metric" text-anchor="middle">0.985</text>
<line x1="1090" y1="268" x2="1138" y2="268" stroke="#9fb0bf" stroke-width="2.4" marker-end="url(#arrow-muted)"/>
<rect x="1152" y="214" width="188" height="108" rx="14" fill="#ffffff" stroke="#2e8b57" stroke-width="2.4"/>
<text x="1246.0" y="248.0" class="label" text-anchor="middle">Mission success</text>
<text x="1246.0" y="287.0" class="metric" text-anchor="middle">0.871</text>
<rect x="180" y="370" width="1140" height="42" rx="12" fill="#f6f8fb" stroke="#d9e1e8"/>
<text x="214.0" y="397.0" class="mono" text-anchor="start">R = 0.95^2 x 0.98 x 0.985 = 0.871</text>
<text x="680.0" y="397.0" class="body" text-anchor="start">Launch-only two-CZ10 reliability would be 0.902; in-orbit operations reduce it by 0.031.</text>
<rect x="58" y="490" width="652" height="330" rx="18" class="panel"/>
<text x="92.0" y="528.0" class="section" text-anchor="start">Architecture reliability comparison</text>
<text x="96.0" y="589.0" class="label" text-anchor="start">Two launch only</text>
<rect x="338" y="567" width="250" height="22" rx="11.0" fill="#eef2f6"/>
<rect x="338" y="567" width="225.6" height="22" rx="11.0" fill="#2468b4"/>
<text x="608.0" y="589.0" class="label" text-anchor="start">0.902</text>
<text x="96.0" y="661.0" class="label" text-anchor="start">Two launch + LEO/TLI chain</text>
<rect x="338" y="639" width="250" height="22" rx="11.0" fill="#eef2f6"/>
<rect x="338" y="639" width="217.8" height="22" rx="11.0" fill="#2e8b57"/>
<text x="608.0" y="661.0" class="label" text-anchor="start">0.871</text>
<text x="96.0" y="733.0" class="label" text-anchor="start">Three launch 2-of-3 extension</text>
<rect x="338" y="711" width="250" height="22" rx="11.0" fill="#eef2f6"/>
<rect x="338" y="711" width="248.2" height="22" rx="11.0" fill="#d9822b"/>
<text x="608.0" y="733.0" class="label" text-anchor="start">0.993</text>
<text x="96.0" y="772.0" class="small" text-anchor="start">The third launch is useful as a sensitivity option, but the baseline remains</text>
<text x="96.0" y="789.0" class="small" text-anchor="start">the two-launch plan requested by the project decision.</text>
<rect x="790" y="490" width="652" height="330" rx="18" class="panel"/>
<text x="824.0" y="528.0" class="section" text-anchor="start">Rendezvous/TLI operation sensitivity</text>
<text x="866.0" y="558.0" class="tiny" text-anchor="middle">0.940</text>
<text x="914.0" y="558.0" class="tiny" text-anchor="middle">0.960</text>
<text x="962.0" y="558.0" class="tiny" text-anchor="middle">0.980</text>
<text x="1010.0" y="558.0" class="tiny" text-anchor="middle">0.990</text>
<text x="1058.0" y="558.0" class="tiny" text-anchor="middle">0.995</text>
<text x="836.0" y="603.0" class="tiny" text-anchor="end">0.940</text>
<text x="836.0" y="651.0" class="tiny" text-anchor="end">0.960</text>
<text x="836.0" y="699.0" class="tiny" text-anchor="end">0.980</text>
<text x="836.0" y="747.0" class="tiny" text-anchor="end">0.985</text>
<text x="836.0" y="795.0" class="tiny" text-anchor="end">0.995</text>
<rect x="848" y="574" width="42" height="42" rx="7" fill="#c84630" stroke="#ffffff" stroke-width="1.4"/>
<text x="869.0" y="601.0" class="tiny-white" text-anchor="middle">0.80</text>
<rect x="848" y="622" width="42" height="42" rx="7" fill="#ad5237" stroke="#ffffff" stroke-width="1.4"/>
<text x="869.0" y="649.0" class="tiny-white" text-anchor="middle">0.81</text>
<rect x="848" y="670" width="42" height="42" rx="7" fill="#925e3e" stroke="#ffffff" stroke-width="1.4"/>
<text x="869.0" y="697.0" class="tiny-white" text-anchor="middle">0.83</text>
<rect x="848" y="718" width="42" height="42" rx="7" fill="#8b6140" stroke="#ffffff" stroke-width="1.4"/>
<text x="869.0" y="745.0" class="tiny-white" text-anchor="middle">0.84</text>
<rect x="848" y="766" width="42" height="42" rx="7" fill="#7d6843" stroke="#ffffff" stroke-width="1.4"/>
<text x="869.0" y="793.0" class="tiny-white" text-anchor="middle">0.84</text>
<rect x="896" y="574" width="42" height="42" rx="7" fill="#ad5237" stroke="#ffffff" stroke-width="1.4"/>
<text x="917.0" y="601.0" class="tiny-white" text-anchor="middle">0.81</text>
<rect x="896" y="622" width="42" height="42" rx="7" fill="#915f3e" stroke="#ffffff" stroke-width="1.4"/>
<text x="917.0" y="649.0" class="tiny-white" text-anchor="middle">0.83</text>
<rect x="896" y="670" width="42" height="42" rx="7" fill="#756b45" stroke="#ffffff" stroke-width="1.4"/>
<text x="917.0" y="697.0" class="tiny-white" text-anchor="middle">0.85</text>
<rect x="896" y="718" width="42" height="42" rx="7" fill="#6e6e47" stroke="#ffffff" stroke-width="1.4"/>
<text x="917.0" y="745.0" class="tiny-white" text-anchor="middle">0.85</text>
<rect x="896" y="766" width="42" height="42" rx="7" fill="#60744a" stroke="#ffffff" stroke-width="1.4"/>
<text x="917.0" y="793.0" class="tiny-white" text-anchor="middle">0.86</text>
<rect x="944" y="574" width="42" height="42" rx="7" fill="#925e3e" stroke="#ffffff" stroke-width="1.4"/>
<text x="965.0" y="601.0" class="tiny-white" text-anchor="middle">0.83</text>
<rect x="944" y="622" width="42" height="42" rx="7" fill="#756b45" stroke="#ffffff" stroke-width="1.4"/>
<text x="965.0" y="649.0" class="tiny-white" text-anchor="middle">0.85</text>
<rect x="944" y="670" width="42" height="42" rx="7" fill="#59784c" stroke="#ffffff" stroke-width="1.4"/>
<text x="965.0" y="697.0" class="tiny-white" text-anchor="middle">0.87</text>
<rect x="944" y="718" width="42" height="42" rx="7" fill="#527b4e" stroke="#ffffff" stroke-width="1.4"/>
<text x="965.0" y="745.0" class="tiny-white" text-anchor="middle">0.87</text>
<rect x="944" y="766" width="42" height="42" rx="7" fill="#448152" stroke="#ffffff" stroke-width="1.4"/>
<text x="965.0" y="793.0" class="tiny-white" text-anchor="middle">0.88</text>
<rect x="992" y="574" width="42" height="42" rx="7" fill="#846441" stroke="#ffffff" stroke-width="1.4"/>
<text x="1013.0" y="601.0" class="tiny-white" text-anchor="middle">0.84</text>
<rect x="992" y="622" width="42" height="42" rx="7" fill="#677148" stroke="#ffffff" stroke-width="1.4"/>
<text x="1013.0" y="649.0" class="tiny-white" text-anchor="middle">0.86</text>
<rect x="992" y="670" width="42" height="42" rx="7" fill="#4b7e50" stroke="#ffffff" stroke-width="1.4"/>
<text x="1013.0" y="697.0" class="tiny-white" text-anchor="middle">0.88</text>
<rect x="992" y="718" width="42" height="42" rx="7" fill="#448152" stroke="#ffffff" stroke-width="1.4"/>
<text x="1013.0" y="745.0" class="tiny-white" text-anchor="middle">0.88</text>
<rect x="992" y="766" width="42" height="42" rx="7" fill="#358855" stroke="#ffffff" stroke-width="1.4"/>
<text x="1013.0" y="793.0" class="tiny-white" text-anchor="middle">0.89</text>
<rect x="1040" y="574" width="42" height="42" rx="7" fill="#7d6843" stroke="#ffffff" stroke-width="1.4"/>
<text x="1061.0" y="601.0" class="tiny-white" text-anchor="middle">0.84</text>
<rect x="1040" y="622" width="42" height="42" rx="7" fill="#60744a" stroke="#ffffff" stroke-width="1.4"/>
<text x="1061.0" y="649.0" class="tiny-white" text-anchor="middle">0.86</text>
<rect x="1040" y="670" width="42" height="42" rx="7" fill="#448152" stroke="#ffffff" stroke-width="1.4"/>
<text x="1061.0" y="697.0" class="tiny-white" text-anchor="middle">0.88</text>
<rect x="1040" y="718" width="42" height="42" rx="7" fill="#3c8553" stroke="#ffffff" stroke-width="1.4"/>
<text x="1061.0" y="745.0" class="tiny-white" text-anchor="middle">0.88</text>
<rect x="1040" y="766" width="42" height="42" rx="7" fill="#2e8b57" stroke="#ffffff" stroke-width="1.4"/>
<text x="1061.0" y="793.0" class="tiny-white" text-anchor="middle">0.89</text>
<text x="1120.0" y="576.0" class="small" text-anchor="start">Columns: R_rendezvous</text>
<text x="1120.0" y="604.0" class="small" text-anchor="start">Rows: R_TLI</text>
<text x="1120.0" y="650.0" class="label" text-anchor="start">Range: 0.797 - 0.893</text>
<text x="1120.0" y="688.0" class="small" text-anchor="start">This panel makes clear which</text>
<text x="1120.0" y="705.0" class="small" text-anchor="start">in-orbit operations need better</text>
<text x="1120.0" y="722.0" class="small" text-anchor="start">evidence in the final paper.</text>
</svg>